<?xml version="1.0" standalone="no"?><!DOCTYPE svg PUBLIC "-//W3C//DTD SVG 1.1//EN" "http://www.w3.org/Graphics/SVG/1.1/DTD/svg11.dtd"><svg t="1773375811667" class="icon" viewBox="0 0 1024 1024" version="1.1" xmlns="http://www.w3.org/2000/svg" p-id="8796" xmlns:xlink="http://www.w3.org/1999/xlink" width="48" height="48"><path d="M822.613 768c-61.44 0-110.364 50.062-110.364 110.364 0 61.44 50.062 110.365 110.364 110.365s110.365-50.062 110.365-110.365C934.116 818.062 884.053 768 822.613 768z m0 167.253c-30.72 0-55.75-25.03-55.75-55.75s25.03-55.752 55.75-55.752 55.751 25.031 55.751 55.751c1.138 30.72-25.03 55.751-55.75 55.751zM290.133 768c-61.44 0-110.364 50.062-110.364 110.364 0 61.44 50.062 110.365 110.364 110.365s110.365-50.062 110.365-110.365C401.636 818.062 351.573 768 290.133 768z m0 167.253c-30.72 0-55.75-25.03-55.75-55.75s25.03-55.752 55.75-55.752 55.751 25.031 55.751 55.751c1.138 30.72-23.893 55.751-55.75 55.751z m576.854-744.106H245.76c-4.551 0-10.24 0-14.791 1.137-12.516 2.276-25.031 6.827-35.271 14.792l-12.516-58.027c-10.24-55.751-58.026-96.711-113.778-96.711H46.65c-14.791 0-27.307 12.515-27.307 27.306s12.516 27.307 27.307 27.307h22.755c29.583 0 55.752 21.618 60.303 52.338l29.582 136.533 61.44 354.987c6.827 42.098 44.373 73.955 87.609 73.955h497.209c43.235 0 79.644-30.72 87.609-73.955l61.44-354.987c1.137-4.55 1.137-10.24 1.137-14.79 0-50.063-39.822-89.885-88.746-89.885z m34.133 94.435L839.68 640.57c-2.276 15.929-17.067 28.444-34.133 28.444H307.2c-17.067 0-30.72-11.377-34.133-28.444l-61.44-354.987c-1.138-9.102 0-18.204 5.689-25.03 5.688-7.965 17.066-13.654 27.306-13.654H865.85c19.342 0 38.684 19.342 35.271 38.684z" fill="#3B82F6" p-id="8797"></path></svg>
