<?xml version="1.0" standalone="no"?><!DOCTYPE svg PUBLIC "-//W3C//DTD SVG 1.1//EN" "http://www.w3.org/Graphics/SVG/1.1/DTD/svg11.dtd"><svg t="1773388433882" class="icon" viewBox="0 0 1024 1024" version="1.1" xmlns="http://www.w3.org/2000/svg" p-id="9647" xmlns:xlink="http://www.w3.org/1999/xlink" width="48" height="48"><path d="M357.575 959.731c-28.326 0-51.382-23.06-51.382-51.382 0-28.321 23.056-51.381 51.382-51.381 28.354 0 51.412 23.06 51.412 51.38 0.001 28.324-23.058 51.383-51.412 51.383z m353.607 0c-28.34 0-51.4-23.06-51.4-51.382 0-28.321 23.06-51.381 51.4-51.381 28.353 0 51.426 23.06 51.426 51.38 0 28.324-23.09 51.383-51.426 51.383zM351.05 833.427c-36.8 0-69.189-29.113-73.693-66.266l-42.841-301.484L210.1 324.532c-1.385-11.414-12.046-21.505-22.797-21.505H155.12c-14.404 0-26.126-11.722-26.126-26.127 0-14.402 11.74-26.11 26.126-26.11h32.183c37.22 0 69.947 29.065 74.5 66.173l24.37 148.62 43.015 302.938c1.309 2.936 11.529 12.67 21.862 12.67h410.267c14.406 0 26.111 11.738 26.111 26.142 0 14.388-11.72 26.08-26.11 26.08H351.05v0.014z m31.567-101.016c-13.596 0-25.042-10.626-26.013-24.22-0.517-6.943 1.697-13.694 6.282-18.99 4.504-5.261 10.866-8.443 17.826-8.96l342.808-25.256c11.782-0.098 22.201-9.09 23.59-20.44l39.77-137.894c1-8.705-1.452-17.615-6.17-22.976-3.066-3.488-6.94-5.265-11.464-5.265H331.931c-14.418 0-26.143-11.722-26.143-26.125 0-14.404 11.74-26.125 26.143-26.125h437.315c19.537 0 37.51 8.122 50.59 22.878 14.92 16.826 21.749 40.546 18.746 65.107L798.78 642.068c-2.18 17.6-10.902 33.878-24.575 46.085-13.759 12.207-31.07 18.957-48.767 19.02l-340.9 25.175-1.922 0.063zM441.373 234.623s116.608 65.328 122.298 160.18C600.481 307.169 711.98 242.08 711.98 242.08l-96.378 28.295c29.108-282.18-262.934-223.72-284.966-119.818 33.145-54.021 252.759-80.104 225.247 109.63l-114.509-25.563z" fill="currentcolor" p-id="9648"></path></svg>