<?xml version="1.0" standalone="no"?><!DOCTYPE svg PUBLIC "-//W3C//DTD SVG 1.1//EN" "http://www.w3.org/Graphics/SVG/1.1/DTD/svg11.dtd"><svg t="1773375998177" class="icon" viewBox="0 0 1024 1024" version="1.1" xmlns="http://www.w3.org/2000/svg" p-id="17662" xmlns:xlink="http://www.w3.org/1999/xlink" width="48" height="48"><path d="M752.704 384a87.68 87.68 0 0 1 25.088 3.52 87.36 87.36 0 0 1 47.04 33.152 70.592 70.592 0 0 1 7.232 13.056L896 582.4v234.752a70.656 70.656 0 0 1-4.992 26.56 76.48 76.48 0 0 1-23.04 31.872 80.64 80.64 0 0 1-17.088 11.072 99.328 99.328 0 0 1-15.424 5.888 86.72 86.72 0 0 1-20.608 3.328 91.328 91.328 0 0 1-4.16 0.064H213.312a91.328 91.328 0 0 1-57.28-20.416 84.48 84.48 0 0 1-15.872-17.856 77.056 77.056 0 0 1-11.776-32.768A72.64 72.64 0 0 1 128 817.28V585.6l64.128-151.488a74.432 74.432 0 0 1 14.72-22.656 81.088 81.088 0 0 1 24.832-18.304 85.504 85.504 0 0 1 24.064-7.744A88.768 88.768 0 0 1 271.616 384h481.088z m-388.48 216.64H170.688v216.64a35.456 35.456 0 0 0 4.288 17.28 38.08 38.08 0 0 0 12.16 13.76 38.848 38.848 0 0 0 9.984 5.376 44.928 44.928 0 0 0 11.2 2.688l4.992 0.256h597.376a48.64 48.64 0 0 0 15.168-2.56 42.88 42.88 0 0 0 24.32-21.888 31.68 31.68 0 0 0 2.56-8.576 32.896 32.896 0 0 0 0.32-1.728l0.256-4.608V600.64H659.84a122.624 122.624 0 0 1-6.144 23.872 120.512 120.512 0 0 1-7.552 17.088 138.304 138.304 0 0 1-46.72 51.2 148.736 148.736 0 0 1-35.2 17.28 152.64 152.64 0 0 1-32.256 7.424 163.52 163.52 0 0 1-59.392-3.648 155.648 155.648 0 0 1-67.904-37.184 140.992 140.992 0 0 1-29.44-40.64 133.056 133.056 0 0 1-10.944-35.392z m388.48-177.28H271.616a46.656 46.656 0 0 0-24.32 7.04 41.728 41.728 0 0 0-13.248 13.696l-2.176 4.352-47.808 112.832h195.328v0.448a24.192 24.192 0 0 1 10.56 0.32 21.952 21.952 0 0 1 12.672 9.408 19.2 19.2 0 0 1 2.688 9.472 90.816 90.816 0 0 0 12.608 46.4 96.064 96.064 0 0 0 18.624 23.232 109.312 109.312 0 0 0 25.152 17.216 110.4 110.4 0 0 0 45.056 11.52 118.912 118.912 0 0 0 36.224-4.16 119.68 119.68 0 0 0 19.328-7.36 100.16 100.16 0 0 0 17.344-10.688 106.24 106.24 0 0 0 21.056-21.44 97.216 97.216 0 0 0 15.936-35.52 93.056 93.056 0 0 0 2.112-21.12 17.664 17.664 0 0 1 2.752-7.936 19.264 19.264 0 0 1 6.144-6.208 20.672 20.672 0 0 1 7.36-3.072 22.4 22.4 0 0 1 4.032-0.512h201.92l-48.576-113.024a42.24 42.24 0 0 0-5.568-9.152 37.632 37.632 0 0 0-9.152-8.32 54.592 54.592 0 0 0-7.424-3.904 43.008 43.008 0 0 0-12.288-3.2l-5.248-0.256zM532.224 128a22.4 22.4 0 0 1 18.88 10.56 19.2 19.2 0 0 1 2.112 5.632l0.32 3.52v155.264a19.712 19.712 0 0 1-1.408 7.104 17.728 17.728 0 0 1-3.52 5.504 21.12 21.12 0 0 1-15.424 7.04 23.104 23.104 0 0 1-14.656-4.48 21.76 21.76 0 0 1-5.44-6.4 18.56 18.56 0 0 1-1.856-5.248l-0.32-3.52V147.712a17.92 17.92 0 0 1 3.584-10.88 19.84 19.84 0 0 1 7.68-6.464A23.872 23.872 0 0 1 532.224 128z m-261.632 5.312l2.56 2.688 124.16 155.264a19.776 19.776 0 0 1 4.032 10.112 17.792 17.792 0 0 1-1.856 9.664 21.12 21.12 0 0 1-4.48 5.888 20.8 20.8 0 0 1-9.28 4.928 22.4 22.4 0 0 1-13.504-0.704 23.04 23.04 0 0 1-6.592-3.84l-2.56-2.624L238.848 159.36a19.712 19.712 0 0 1-4.096-10.112 17.984 17.984 0 0 1 3.2-12.16 18.624 18.624 0 0 1 4.608-4.736 20.16 20.16 0 0 1 6.912-3.456 23.68 23.68 0 0 1 13.568 0.128 22.784 22.784 0 0 1 7.552 4.224z m552-1.472a21.376 21.376 0 0 1 7.232 8.704 18.624 18.624 0 0 1-0.704 15.808l-2.048 3.008-123.776 155.264a20.736 20.736 0 0 1-11.136 7.232 25.344 25.344 0 0 1-7.808 0.768 23.36 23.36 0 0 1-11.776-4.352 19.2 19.2 0 0 1-6.336-8.064 14.848 14.848 0 0 1-0.896-2.56 21.44 21.44 0 0 1-0.576-3.648v-0.896a21.696 21.696 0 0 1 0.768-5.376 13.888 13.888 0 0 1 0.96-2.56 14.272 14.272 0 0 1 0.448-0.896l1.92-3.008 123.904-155.2a15.936 15.936 0 0 1 2.752-2.88 19.52 19.52 0 0 1 6.208-3.648 19.84 19.84 0 0 1 4.992-1.28 22.848 22.848 0 0 1 15.872 3.584z" fill="currentColor" p-id="17663"></path></svg>