<?xml version="1.0" standalone="no"?><!DOCTYPE svg PUBLIC "-//W3C//DTD SVG 1.1//EN" "http://www.w3.org/Graphics/SVG/1.1/DTD/svg11.dtd"><svg t="1773546017324" class="icon" viewBox="0 0 1137 1024" version="1.1" xmlns="http://www.w3.org/2000/svg" p-id="5382" xmlns:xlink="http://www.w3.org/1999/xlink" width="53.296875" height="48"><path d="M1093.347556 231.992889l-0.398223-1.080889-2.104889-5.802667a344.576 344.576 0 0 0-534.755555-150.983111A341.674667 341.674667 0 0 0 344.917333 1.877333h-0.512a344.348444 344.348444 0 0 0-273.066666 553.415111l434.005333 438.954667c11.832889 11.946667 27.534222 19.228444 44.259556 20.650667 5.063111 1.251556 10.296889 1.137778 15.303111-0.341334 15.587556-1.991111 30.151111-9.102222 41.244444-20.252444l434.574222-438.499556a341.731556 341.731556 0 0 0 71.68-210.375111 344.746667 344.746667 0 0 0-19.057777-113.436444z" fill="#d81e06" p-id="5383"></path></svg>